<?xml version="1.0" standalone="no"?>
<!DOCTYPE svg PUBLIC "-//W3C//DTD SVG 20010904//EN"
 "http://www.w3.org/TR/2001/REC-SVG-20010904/DTD/svg10.dtd">
<svg version="1.0" xmlns="http://www.w3.org/2000/svg"
 width="1024.000000pt" height="1024.000000pt" viewBox="0 0 1024.000000 1024.000000"
 preserveAspectRatio="xMidYMid meet">
<metadata>
Created by potrace 1.14, written by Peter Selinger 2001-2017
</metadata>
<g transform="translate(0.000000,1024.000000) scale(0.100000,-0.100000)"
fill="#000000" stroke="none">
<path d="M4665 10226 c-41 -19 -69 -45 -90 -86 -18 -33 -19 -84 -20 -1060 0
-970 -1 -1028 -18 -1066 -19 -42 -84 -93 -122 -95 -11 -1 -511 -2 -1111 -3
l-1090 -1 -41 -27 c-24 -16 -49 -44 -62 -70 -20 -43 -21 -57 -21 -470 0 -457
1 -470 52 -519 57 -54 5 -52 1185 -52 1233 0 1144 6 1200 -78 l28 -43 0 -3260
c1 -3106 2 -3263 19 -3298 9 -20 36 -49 58 -65 l41 -28 431 -3 c296 -2 443 0
469 8 41 12 93 59 110 100 7 17 11 1038 11 3285 1 2741 4 3264 15 3285 19 35
59 70 95 85 24 10 270 13 1123 13 1089 0 1092 0 1135 21 24 11 54 37 68 58
l25 37 3 435 c3 473 1 492 -52 539 -57 49 -3 46 -1151 48 -594 1 -1094 2
-1110 3 -46 2 -111 48 -132 95 -17 38 -18 97 -19 1071 l0 1030 -22 35 c-12 19
-38 46 -58 60 l-38 25 -440 2 c-354 2 -447 0 -471 -11z"/>
</g>
</svg>
